<svg xmlns="http://www.w3.org/2000/svg" viewBox="0 0 100 100" width="100" height="100">
  <!-- ITB Logo: Institut Teknologi Bandung -->
  <!-- Background circle -->
  <circle cx="50" cy="50" r="48" fill="#003F7F" stroke="#003F7F" stroke-width="1"/>

  <!-- Outer ring -->
  <circle cx="50" cy="50" r="46" fill="none" stroke="#FFFFFF" stroke-width="1.5"/>

  <!-- Stylized "ITB" text mark -->
  <!-- I -->
  <rect x="24" y="32" width="5" height="36" fill="#FFFFFF" rx="1"/>

  <!-- T -->
  <rect x="34" y="32" width="18" height="5" fill="#FFFFFF" rx="1"/>
  <rect x="40.5" y="37" width="5" height="31" fill="#FFFFFF" rx="1"/>

  <!-- B -->
  <rect x="57" y="32" width="5" height="36" fill="#FFFFFF" rx="1"/>
  <rect x="62" y="32" width="6" height="3" fill="#FFFFFF" rx="0"/>
  <rect x="62" y="48.5" width="6" height="3" fill="#FFFFFF" rx="0"/>
  <rect x="62" y="65" width="6" height="3" fill="#FFFFFF" rx="0"/>
  <path d="M68 35 Q76 35 76 46.5 Q76 48.5 68 48.5 Z" fill="#FFFFFF"/>
  <path d="M68 51.5 Q78 51.5 78 63 Q78 65 68 65 Z" fill="#FFFFFF"/>

  <!-- Gold accent line -->
  <rect x="20" y="76" width="60" height="3" fill="#F5A623" rx="1"/>
</svg>
